<svg xmlns="http://www.w3.org/2000/svg" viewBox="0 0 3333 3333" shape-rendering="geometricPrecision" text-rendering="geometricPrecision" image-rendering="optimizeQuality" fill-rule="evenodd" clip-rule="evenodd"><path d="M1662 1174c285 0 516 231 516 516s-231 516-516 516-516-231-516-516 231-516 516-516zm-385-421h780c293 0 532 237 532 525v778c0 289-239 525-532 525h-780c-293 0-532-236-532-525v-778c0-289 240-525 532-525zm884 349c46 0 84 37 84 84 0 46-37 84-84 84-46 0-84-37-84-84 0-46 37-84 84-84zm-820-200h652c245 0 445 199 445 443v656c0 244-200 443-445 443h-652c-245 0-445-199-445-443v-656c0-244 200-443 445-443zM1667 0c460 0 877 187 1179 488 302 302 488 718 488 1179 0 460-187 877-488 1179-302 302-718 488-1179 488-460 0-877-187-1179-488C186 2544 0 2128 0 1667c0-460 187-877 488-1179C790 186 1206 0 1667 0zm1093 573c-280-280-666-453-1093-453S853 293 574 573c-280 280-453 666-453 1093s173 814 453 1093c280 280 666 453 1093 453s814-173 1093-453c280-280 453-666 453-1093s-173-814-453-1093zm-1098 774c188 0 341 153 341 341s-153 341-341 341c-189 0-341-153-341-341s153-341 341-341z"/></svg>