<?xml version="1.0" encoding="utf-8"?>
<!-- Svg Vector Icons : http://www.onlinewebfonts.com/icon -->
<!DOCTYPE svg PUBLIC "-//W3C//DTD SVG 1.1//EN" "http://www.w3.org/Graphics/SVG/1.1/DTD/svg11.dtd">
<svg version="1.1" xmlns="http://www.w3.org/2000/svg" xmlns:xlink="http://www.w3.org/1999/xlink" x="0px" y="0px" viewBox="0 0 1000 1000" enable-background="new 0 0 1000 1000" xml:space="preserve">
<metadata> Svg Vector Icons : http://www.onlinewebfonts.com/icon </metadata>
<g><path d="M732.7,328.4c-17.7,10.3-37.2,17.8-58,21.8c-16.7-17.5-40.4-28.4-66.7-28.4c-50.5,0-91.4,40.3-91.4,89.9c0,7,0.8,13.9,2.3,20.5c-76-3.8-143.3-39.6-188.4-94c-7.9,13.3-12.4,28.7-12.4,45.2c0,31.2,16.1,58.7,40.7,74.9c-15-0.5-29.1-4.5-41.4-11.3c0,0.4,0,0.7,0,1.1c0,43.6,31.5,80,73.3,88.2c-7.7,2-15.7,3.1-24.1,3.1c-5.9,0-11.6-0.6-17.2-1.6c11.6,35.8,45.4,61.7,85.4,62.5c-31.3,24.1-70.7,38.5-113.5,38.5c-7.4,0-14.6-0.4-21.8-1.2c40.5,25.5,88.5,40.4,140.1,40.4c168.1,0,260-137.1,260-255.9c0-3.9-0.1-7.8-0.3-11.6c17.8-12.7,33.3-28.5,45.6-46.5c-16.4,7.1-34,12-52.5,14.1C711.4,367.1,725.9,349.4,732.7,328.4 M500,10C229.4,10,10,229.4,10,500c0,270.6,219.4,490,490,490s490-219.4,490-490C990,229.4,770.6,10,500,10 M500,945.5C254,945.5,54.5,746,54.5,500C54.5,254,254,54.5,500,54.5C746,54.5,945.5,254,945.5,500C945.5,746,746,945.5,500,945.5z"/></g>
</svg>